<svg width="77" height="27" viewBox="0 0 77 27" fill="none" xmlns="http://www.w3.org/2000/svg">
<path fill-rule="evenodd" clip-rule="evenodd" d="M26.6574 13.3283C26.6574 20.6894 20.69 26.6567 13.3289 26.6567C5.96749 26.6567 0 20.6894 0 13.3283C0 5.9672 5.96749 -0.000119466 13.3289 -0.000119466C20.69 -0.000119466 26.6574 5.9672 26.6574 13.3283Z" fill="#ED342B"/>
<path fill-rule="evenodd" clip-rule="evenodd" d="M13.3287 19.0375C10.3474 12.2797 8.1614 5.96664 8.1614 5.96664H3.59106C3.59106 5.96664 6.37279 14.0695 11.5399 24.2026H15.1175C20.2846 14.0695 23.0661 5.96664 23.0661 5.96664H18.4958C18.4958 5.96664 16.31 12.2797 13.3287 19.0375Z" fill="#FEFEFE"/>
<path fill-rule="evenodd" clip-rule="evenodd" d="M70.7298 12.6332C68.1461 12.6332 67.9477 15.4154 67.9477 15.4154H73.5113C73.5113 15.4154 73.3129 12.6332 70.7298 12.6332ZM76.8898 18.1971H67.9477C67.9477 18.1971 68.1461 21.1783 72.1209 21.1783C74.1077 21.1783 76.0949 20.5815 76.0949 20.5815L76.4926 23.7609C76.4926 23.7609 74.5054 24.5563 71.7232 24.5563C67.7489 24.5563 64.172 22.5689 64.172 17.0049C64.172 12.6332 66.9543 9.85113 70.9285 9.85113C76.8898 9.85113 77.287 15.8126 76.8898 18.1971ZM46.4833 13.5018L47.0987 10.2208C47.0987 10.2208 42.3475 8.77908 38.4858 11.4508V24.575H42.5869V13.9115C44.2274 12.6817 46.4833 13.5018 46.4833 13.5018ZM29.3884 12.6332C26.8053 12.6332 26.6067 15.4154 26.6067 15.4154H32.1705C32.1705 15.4154 31.9721 12.6332 29.3884 12.6332ZM35.5485 18.1971H26.6067C26.6067 18.1971 26.8053 21.1783 30.7796 21.1783C32.7663 21.1783 34.7537 20.5815 34.7537 20.5815L35.1513 23.7609C35.1513 23.7609 33.164 24.5563 30.3819 24.5563C26.4076 24.5563 22.8306 22.5689 22.8306 17.0049C22.8306 12.6332 25.6128 9.85113 29.587 9.85113C35.5485 9.85113 35.9457 15.8126 35.5485 18.1971ZM56.4919 19.559C54.4094 14.5607 53.3686 9.85352 53.3686 9.85352L49.2045 9.85403C49.2045 9.85403 51.2868 17.8928 54.8269 24.5538H58.157C61.6972 17.8928 63.7795 9.8552 63.7795 9.8552H59.6152C59.6152 9.8552 58.5744 14.5607 56.4919 19.559Z" fill="white"/>
</svg>
