<svg width="121" height="47" viewBox="0 0 121 47" fill="none" xmlns="http://www.w3.org/2000/svg">
<path d="M2.0645 27.952L0.592499 37.104H21.9685L20.3685 46H31.3765L32.9765 37.104H38.6725L40.2725 27.952H34.5765L39.2485 1.2H24.6565L2.0645 27.952ZM12.6885 27.952L26.5125 11.76L23.5685 27.952H12.6885ZM74.1775 2.928C71.7455 1.52 68.8655 0.815998 65.5375 0.815998C60.8015 0.815998 56.6415 2.16 53.1215 4.72C49.5375 7.344 46.8495 10.864 44.9935 15.216C43.0735 19.568 42.1775 24.304 42.1775 29.424C42.1775 32.944 42.8175 35.952 44.1615 38.512C45.5055 41.072 47.4255 42.992 49.8575 44.336C52.2895 45.744 55.2335 46.384 58.5615 46.384C63.2335 46.384 67.3295 45.104 70.9135 42.544C74.4335 39.984 77.1215 36.528 79.0415 32.176C80.9615 27.824 81.9215 23.088 81.9215 17.904C81.9215 14.448 81.2175 11.376 79.8735 8.816C78.5295 6.256 76.6095 4.336 74.1775 2.928ZM69.1855 12.144C70.2095 13.424 70.7215 15.408 70.7215 17.968C70.7215 20.976 70.2735 23.92 69.3775 26.864C68.4815 29.808 67.2015 32.24 65.4735 34.16C63.6815 36.08 61.6335 37.04 59.2015 37.04C57.4095 37.04 56.0015 36.4 54.9775 35.12C53.9535 33.84 53.4415 31.92 53.4415 29.36C53.4415 26.352 53.8255 23.344 54.7215 20.4C55.6175 17.456 56.8975 14.96 58.6895 13.04C60.4175 11.12 62.5295 10.16 64.9615 10.16C66.7535 10.16 68.1615 10.864 69.1855 12.144ZM82.2545 27.952L80.7825 37.104H102.159L100.559 46H111.567L113.167 37.104H118.863L120.463 27.952H114.767L119.439 1.2H104.847L82.2545 27.952ZM92.8785 27.952L106.703 11.76L103.759 27.952H92.8785Z" fill="#101828"/>
</svg>
