<svg width="21" height="20" viewBox="0 0 21 20" fill="none" xmlns="http://www.w3.org/2000/svg">
<path d="M3 4.9974H4.66667M4.66667 4.9974H18M4.66667 4.9974V16.6641C4.66667 17.1061 4.84226 17.53 5.15482 17.8426C5.46738 18.1551 5.89131 18.3307 6.33333 18.3307H14.6667C15.1087 18.3307 15.5326 18.1551 15.8452 17.8426C16.1577 17.53 16.3333 17.1061 16.3333 16.6641V4.9974H4.66667ZM7.16667 4.9974V3.33073C7.16667 2.8887 7.34226 2.46478 7.65482 2.15222C7.96738 1.83966 8.39131 1.66406 8.83333 1.66406H12.1667C12.6087 1.66406 13.0326 1.83966 13.3452 2.15222C13.6577 2.46478 13.8333 2.8887 13.8333 3.33073V4.9974M8.83333 9.16406V14.1641M12.1667 9.16406V14.1641" stroke="#D92D20" stroke-width="1.66667" stroke-linecap="round" stroke-linejoin="round"/>
</svg>
