<svg width="21" height="20" viewBox="0 0 21 20" fill="none" xmlns="http://www.w3.org/2000/svg">
<path d="M14.666 2.50286C14.8849 2.28399 15.1447 2.11037 15.4307 1.99192C15.7167 1.87347 16.0232 1.8125 16.3327 1.8125C16.6422 1.8125 16.9487 1.87347 17.2347 1.99192C17.5206 2.11037 17.7805 2.28399 17.9993 2.50286C18.2182 2.72173 18.3918 2.98156 18.5103 3.26753C18.6287 3.5535 18.6897 3.85999 18.6897 4.16952C18.6897 4.47905 18.6287 4.78555 18.5103 5.07152C18.3918 5.35748 18.2182 5.61732 17.9993 5.83619L6.74935 17.0862L2.16602 18.3362L3.41602 13.7529L14.666 2.50286Z" stroke="#667085" stroke-width="1.66667" stroke-linecap="round" stroke-linejoin="round"/>
</svg>
