<svg width="109" height="108" viewBox="0 0 109 108" fill="none" xmlns="http://www.w3.org/2000/svg">
<g clip-path="url(#clip0_12327_138000)">
<rect x="0.5" width="108" height="108" rx="54" fill="#ECFDF3"/>
<rect x="33.9589" y="32.6174" width="102.855" height="63.2953" rx="5.53834" transform="rotate(15 33.9589 32.6174)" fill="#12B76A" stroke="#039855" stroke-width="1.58238"/>
<g style="mix-blend-mode:color">
<rect x="22.5898" y="35.3047" width="104.437" height="64.8777" rx="6.32953" transform="rotate(15 22.5898 35.3047)" fill="#027A48"/>
</g>
<rect x="22.7401" y="37.7971" width="102.855" height="63.2953" rx="5.53834" transform="rotate(15 22.7401 37.7971)" fill="#027A48" stroke="#05603A" stroke-width="1.58238"/>
<g style="mix-blend-mode:color">
<rect x="11.3711" y="40.4844" width="104.437" height="64.8777" rx="6.32953" transform="rotate(15 11.3711 40.4844)" fill="#05603A"/>
</g>
<rect x="11.5209" y="42.9924" width="102.855" height="63.2953" rx="5.53834" transform="rotate(15 11.5209 42.9924)" fill="#05603A" stroke="#054F31" stroke-width="1.58238"/>
<path d="M56.7775 75.7602L65.3 83.7775L64.0713 88.3629L25.8598 78.1241L27.0884 73.5388L38.4897 70.8534L48.8988 68.5647L56.7775 75.7602Z" fill="#D1FADF"/>
<path d="M29.3238 77.4246C27.5082 76.9584 26.2694 76.5963 26.2694 76.5963L25.8598 78.1248L64.0713 88.3635L65.3 83.7781L62.2389 80.8977C56.8947 83.9832 41.5515 80.701 29.3238 77.4246Z" fill="#A6F4C5"/>
<path d="M28.9171 78.9392L33.5025 80.1678L30.5807 94.1287L24.4669 92.4905L28.9171 78.9392Z" fill="#D1FADF"/>
<path d="M32.7143 79.9566C31.0761 86.0705 28.9652 90.9873 24.9705 90.9873L24.4669 92.4905L30.5807 94.1287L33.5024 80.1678L32.7143 79.9566Z" fill="#A6F4C5"/>
<path d="M42.6734 82.6267L47.2588 83.8553L44.3371 97.8162L38.2232 96.178L42.6734 82.6267Z" fill="#D1FADF"/>
<path d="M46.4707 83.6441C44.8325 89.758 42.7215 94.6748 38.7268 94.6748L38.2232 96.178L44.3371 97.8162L47.2588 83.8553L46.4707 83.6441Z" fill="#A6F4C5"/>
<path d="M56.4293 86.3142L61.0147 87.5428L58.093 101.504L51.9791 99.8655L56.4293 86.3142Z" fill="#D1FADF"/>
<path d="M60.2265 87.3316C58.5884 93.4455 56.4774 98.3623 52.4827 98.3623L51.9791 99.8655L58.0929 101.504L61.0147 87.5428L60.2265 87.3316Z" fill="#A6F4C5"/>
<path d="M30.1158 98.9222L31.3444 94.3368L23.7021 92.2891L22.4735 96.8744L30.1158 98.9222Z" fill="#A6F4C5"/>
<path d="M30.0548 93.9913C28.4784 96.8921 24.4115 95.7555 22.883 95.346L22.4735 96.8744L30.1158 98.9222L31.3444 94.3368L30.0548 93.9913Z" fill="#A6F4C5"/>
<path d="M43.8721 102.602L45.1008 98.0165L37.4585 95.9688L36.2299 100.554L43.8721 102.602Z" fill="#A6F4C5"/>
<path d="M43.8112 97.6709C42.2347 100.572 38.1679 99.4352 36.6394 99.0257L36.2298 100.554L43.8721 102.602L45.1008 98.0165L43.8112 97.6709Z" fill="#A6F4C5"/>
<path d="M57.6285 106.297L58.8571 101.712L51.2148 99.6641L49.9862 104.249L57.6285 106.297Z" fill="#A6F4C5"/>
<path d="M57.9282 111.293L59.1568 106.707L20.9453 96.4688L19.7167 101.054L57.9282 111.293Z" fill="#D1FADF"/>
<path d="M57.6284 106.298C52.7833 109.095 22.4189 100.14 22.4189 100.14L20.1262 99.5257L19.7167 101.054L57.9282 111.293L59.1568 106.707L57.6284 106.298Z" fill="#A6F4C5"/>
<path d="M20.9453 96.4688L19.7167 101.054L21.2451 101.464L22.4738 96.8783L20.9453 96.4688Z" fill="#D1FADF"/>
<path d="M56.4293 86.3119L55.9347 87.8175L60.6902 89.0918L61.0147 87.5405L56.4293 86.3119Z" fill="#A6F4C5"/>
<path d="M56.4293 86.3142L51.9791 99.8655L53.5076 100.275L57.9577 86.7237L56.4293 86.3142Z" fill="#D1FADF"/>
<path d="M38.7621 70.7637L27.0886 73.5391L25.86 78.1245L27.3884 78.534L28.4123 74.7129L38.8386 72.2576C38.7739 71.7624 38.7483 71.2629 38.7621 70.7637Z" fill="#A6F4C5"/>
<path d="M57.5675 101.366C55.9911 104.267 51.9242 103.131 50.3957 102.721L49.9862 104.249L57.6285 106.297L58.8571 101.712L57.5675 101.366Z" fill="#A6F4C5"/>
<path d="M51.2148 99.6641L49.9862 104.249L51.5147 104.659L52.7433 100.074L51.2148 99.6641Z" fill="#D1FADF"/>
<path d="M23.7021 92.2891L22.4735 96.8744L24.002 97.284L25.2306 92.6986L23.7021 92.2891Z" fill="#D1FADF"/>
<path d="M37.4585 95.9688L36.2298 100.554L37.7583 100.964L38.987 96.3783L37.4585 95.9688Z" fill="#D1FADF"/>
<path d="M37.4585 95.9688L36.2298 100.554L37.7583 100.964L38.987 96.3783L37.4585 95.9688Z" fill="#D1FADF"/>
<path d="M42.6734 82.6266L38.2232 96.178L39.7517 96.5876L44.2019 83.0362L42.6734 82.6266Z" fill="#D1FADF"/>
<path d="M42.673 82.6322L42.1783 84.1378L46.9339 85.4121L47.2583 83.8608L42.673 82.6322Z" fill="#A6F4C5"/>
<path d="M42.6734 82.6266L38.2232 96.178L39.7517 96.5876L44.2019 83.0362L42.6734 82.6266Z" fill="#D1FADF"/>
<path d="M28.9171 78.9447L28.4225 80.4503L33.178 81.7246L33.5025 80.1733L28.9171 78.9447Z" fill="#A6F4C5"/>
<path d="M28.9171 78.9391L24.4669 92.4905L25.9953 92.9001L30.4455 79.3487L28.9171 78.9391Z" fill="#D1FADF"/>
</g>
<defs>
<clipPath id="clip0_12327_138000">
<rect x="0.5" width="108" height="108" rx="54" fill="white"/>
</clipPath>
</defs>
</svg>
