<svg width="69" height="69" viewBox="0 0 69 69" fill="none" xmlns="http://www.w3.org/2000/svg">
<g clip-path="url(#clip0_11740_136998)">
<rect x="0.375" y="0.375" width="68.2515" height="68.2515" rx="34.1258" fill="#F2F4F7"/>
<path d="M59.9867 37.0831V39.405L60.5672 42.5977H50.4086L60.5672 43.4685L63.4697 47.2416H25.4476L16.7402 43.4685V35.0514L22.5451 30.1172L59.9867 32.7294L60.5672 34.4709V36.5026L36.1866 35.6318L59.9867 37.0831Z" fill="#926262"/>
<path d="M19.3527 28.375L-13.1548 32.7287C-19.2498 33.545 -18.0889 35.6311 -18.3792 42.3068C-18.6114 47.6473 -16.154 48.9824 -14.8962 48.9824L26.899 49.8531H64.3406L65.7918 47.8214L28.9307 47.5312L17.6112 43.4677L16.7405 35.6311L19.3527 31.5677L32.1234 29.2457L19.3527 28.375Z" fill="black"/>
<path d="M22.8354 28.9544L63.7599 30.4056C63.9535 30.5991 64.2824 31.4504 64.0502 33.3079C63.76 35.6299 39.6697 31.8567 27.4794 31.5665C15.2891 31.2762 17.9013 37.9133 17.9013 42.3055C17.9013 44.3373 21.9647 45.7885 25.7379 45.7885H63.4698L65.5015 47.8202H31.833C12.6768 50.7226 16.1598 40.8544 16.1598 34.469C16.1598 29.3607 20.6102 28.6641 22.8354 28.9544Z" fill="black"/>
<path d="M2.76719 55.8565V58.1785L2.1867 61.3712H12.3453L2.1867 62.2419L-0.715752 66.0151H37.3063L46.0137 62.2419V53.8248L40.2088 48.8906L2.76719 51.5028L2.1867 53.2443V55.276L26.5673 54.4053L2.76719 55.8565Z" fill="#926262"/>
<path d="M43.4012 47.1484L75.9087 51.5021C82.0038 52.3184 80.8428 54.4046 81.1331 61.0802C81.3653 66.4207 78.9079 67.7558 77.6501 67.7558L35.8549 68.6266H-1.58665L-3.03788 66.5948L33.8232 66.3046L45.1427 62.2412L46.0134 54.4046L43.4012 50.3411L30.6305 48.0192L43.4012 47.1484Z" fill="#344054"/>
<path d="M39.9185 47.7278L-1.00604 49.179C-1.19955 49.3725 -1.52853 50.2238 -1.29634 52.0814C-1.00609 54.4033 23.0842 50.6302 35.2745 50.3399C47.4648 50.0497 44.8526 56.6868 44.8526 61.079C44.8526 63.1107 40.7892 64.5619 37.016 64.5619H-0.715847L-2.74756 66.5936H30.9209C50.0771 69.4961 46.5941 59.6279 46.5941 53.2425C46.5941 48.1342 42.1437 47.4376 39.9185 47.7278Z" fill="#344054"/>
<path d="M75.9082 56.4325V61.6569C71.2643 63.9789 65.2659 63.3984 62.8472 62.8179C64.4726 61.8891 65.6529 56.4325 66.0399 53.8203C69.2906 54.0525 73.9732 55.6585 75.9082 56.4325Z" fill="#D9D9D9"/>
<path d="M31.9913 -2.65525L30.9519 -5.73831L29.8787 -5.33122L23.8096 17.426L28.1047 19.8878L43.2987 -1.21709L42.2244 -2.85505L41.7233 -3.07409L40.437 -0.131531L39.2903 -2.96938L36.7489 -4.6645L29.6018 10.3197L35.2108 -3.87651L33.6715 -5.13356L26.7388 9.36018L31.9913 -2.65525Z" fill="#787878"/>
<path d="M53.8149 17.6569C49.2793 28.0324 44.6774 31.442 42.9434 31.8499C42.0765 32.0537 34.1725 26.5583 28.3402 22.5514C23.4027 19.1592 22.5886 17.0253 23.0879 15.8833L29.2419 -6.20128L30.7112 -5.55896C16.7054 34.487 32.6294 12.962 42.3422 -2.80624L53.8149 17.6569Z" fill="black"/>
</g>
<defs>
<clipPath id="clip0_11740_136998">
<rect x="0.375" y="0.375" width="68.2515" height="68.2515" rx="34.1258" fill="white"/>
</clipPath>
</defs>
</svg>
