<svg width="109" height="108" viewBox="0 0 109 108" fill="none" xmlns="http://www.w3.org/2000/svg">
<g clip-path="url(#clip0_11744_137653)">
<rect x="0.539062" y="0.0390625" width="107.923" height="107.923" rx="53.9614" fill="#FEF0C7"/>
<path d="M70.0142 54.3095C59.8166 53.9658 28.1156 72.0716 11.1348 80.8768C29.6967 87.2933 73.8604 98.4802 113.963 137.008C127.713 126.123 164.906 103.518 185.503 97.0712C155.827 70.1449 92.1186 59.2746 70.0142 54.3095Z" fill="#FEDF89"/>
<path d="M69.1539 42.0447C57.9591 41.6674 24.3957 60.1329 4.68945 68.3089C25.0665 75.3528 70.2545 89.6857 114.279 131.981C129.373 120.031 170.305 99.3292 191.794 91.4153C159.215 61.856 93.4198 47.4954 69.1539 42.0447Z" fill="#FEC84B"/>
<path d="M80.3182 33.2422C60.5071 35.1288 26.2309 48.8078 6.73438 58.3991C27.1114 65.4431 71.6705 81.9835 115.695 124.278C126.009 113.461 171.564 94.9288 193.052 87.0148C160.474 57.4555 104.584 38.6928 80.3182 33.2422Z" fill="#FDB022"/>
<path d="M71.4712 44.4609C58.0813 47.8084 35.2068 55.8982 25.4434 59.5246L28.7908 61.1983C36.8248 57.1814 62.2656 49.4822 73.9818 46.1347L71.4712 44.4609Z" fill="#FEC84B"/>
<path d="M93.2303 43.625C79.8403 46.9725 43.576 59.2466 33.8125 62.873L37.16 64.5467C45.1939 60.5298 84.0247 48.6462 95.7409 45.2987L93.2303 43.625Z" fill="#FEC84B"/>
<path d="M117.867 52.6875C104.477 56.035 68.2127 68.3091 58.4492 71.9355L61.7967 73.6092C69.8306 69.5923 108.661 57.7087 120.378 54.3612L117.867 52.6875Z" fill="#FEC84B"/>
<path d="M126.172 56.8438C112.782 60.1912 76.5174 72.4653 66.7539 76.0918L70.1014 77.7655C78.1353 73.7485 116.966 61.865 128.682 58.5175L126.172 56.8438Z" fill="#FEC84B"/>
<path d="M134.47 60.9922C121.081 64.3397 84.8162 76.6138 75.0527 80.2402L78.4002 81.9139C86.4342 77.897 125.265 66.0134 136.981 62.6659L134.47 60.9922Z" fill="#FEC84B"/>
<path d="M142.775 67.2188C129.385 70.5662 93.1209 82.8403 83.3574 86.4668L86.7049 88.1405C94.7389 84.1235 133.57 72.24 145.286 68.8925L142.775 67.2188Z" fill="#FEC84B"/>
<path d="M62.2685 58.6797C48.8786 62.0272 51.9471 61.7482 42.1836 65.3746L45.5311 67.0484C53.565 63.0314 53.0629 63.7009 64.7791 60.3534L62.2685 58.6797Z" fill="#FEC84B"/>
</g>
<defs>
<clipPath id="clip0_11744_137653">
<rect x="0.539062" y="0.0390625" width="107.923" height="107.923" rx="53.9614" fill="white"/>
</clipPath>
</defs>
</svg>
