<svg width="109" height="109" viewBox="0 0 109 109" fill="none" xmlns="http://www.w3.org/2000/svg">
<g clip-path="url(#clip0_11745_137016)">
<rect x="0.539062" y="0.539062" width="107.923" height="107.923" rx="53.9614" fill="#F8F9FC"/>
<path d="M78.6158 67.8943C78.2922 58.5113 83.0646 37.2916 85.4913 27.8546C86.1793 25.1777 87.6752 22.516 80.2335 30.2813C72.7918 38.0466 66.0781 26.2369 63.6514 19.3613C64.0558 18.6873 63.4087 19.5231 57.5848 28.259C51.7608 36.995 44.9123 27.585 42.216 21.788C42.0812 21.9228 41.2453 23.0013 38.9804 26.2368C36.7156 29.4724 31.0264 28.6635 28.465 27.8546C14.8757 80.9174 18.7584 98.2275 22.3983 100.25C35.3405 100.25 37.9017 94.1831 37.7669 90.1387C35.7447 91.2172 33.6418 90.4622 39.7893 86.9031C45.9369 83.344 70.1225 83.2631 81.4468 83.6676C80.638 82.3194 78.9393 77.2774 78.6158 67.8943Z" fill="#AFB5D9"/>
<g style="mix-blend-mode:screen">
<path d="M79.4767 67.2907C79.1571 58.4904 83.8712 38.5886 86.2681 29.7377C86.9477 27.2271 88.4254 24.7307 81.0747 32.0137C73.724 39.2967 67.0923 28.2204 64.6954 21.7719C65.0949 21.1397 64.4557 21.9236 58.7029 30.117C52.9502 38.3104 46.1854 29.4848 43.5221 24.0479C43.3889 24.1743 42.5633 25.1858 40.3261 28.2204C38.0889 31.255 32.4694 30.4964 29.9392 29.7377C16.5162 79.505 20.3513 95.74 23.9468 97.6366C36.7306 97.6366 39.2606 91.9468 39.1274 88.1536C37.1299 89.1651 35.0528 88.457 41.1251 85.1189C47.1974 81.7809 71.0873 81.705 82.2732 82.0844C81.4742 80.82 79.7963 76.091 79.4767 67.2907Z" fill="#3E4784"/>
</g>
<path d="M81.0025 70.3162C80.6789 60.9332 85.4513 39.7135 87.878 30.2765C88.566 27.5996 90.062 24.9379 82.6202 32.7032C75.1785 40.4685 68.4648 28.6587 66.0381 21.7832C66.4426 21.1091 65.7955 21.945 59.9715 30.6809C54.1475 39.4169 47.299 30.0069 44.6027 24.2099C44.4679 24.3447 43.632 25.4232 41.3672 28.6587C39.1023 31.8942 33.4131 31.0854 30.8517 30.2765C17.2624 83.3392 21.1451 100.649 24.7851 102.672C37.7272 102.672 40.2884 96.605 40.1536 92.5606C38.1314 93.6391 36.0285 92.8841 42.1761 89.325C48.3236 85.7659 72.5092 85.685 83.8336 86.0895C83.0247 84.7413 81.326 79.6993 81.0025 70.3162Z" fill="#363F72"/>
<path d="M90.3418 81.0535L82.6574 80.649L40.9999 79.0312C32.7762 82.2668 17.6231 90.5174 22.8 97.6356C29.2711 106.533 44.2354 104.511 68.0975 104.511C91.9595 104.511 93.1729 100.871 96.004 91.1645C98.2688 83.3992 93.1729 81.1883 90.3418 81.0535Z" fill="#3E4784"/>
<path opacity="0.2" d="M90.3418 83.2566L82.6574 82.8521L40.9999 81.2344C32.7762 84.4699 17.6231 92.7205 22.8 99.8387C29.2711 108.736 44.2354 106.714 68.0975 106.714C91.9595 106.714 93.1729 103.074 96.004 93.3676C98.2688 85.6023 93.1729 83.3914 90.3418 83.2566Z" fill="#C2CAED"/>
<path d="M90.3418 84.4753L82.6574 84.0709L40.9999 82.4531C32.7762 85.6887 17.6231 93.9393 22.8 101.057C29.2711 109.955 44.2354 107.933 68.0975 107.933C91.9595 107.933 93.1729 104.293 96.004 94.5864C98.2688 86.8211 93.1729 84.6101 90.3418 84.4753Z" fill="#AFB5D9"/>
<path d="M52.0816 46.2782C58.8762 47.896 71.6296 46.9523 77.157 46.2782C78.1276 46.6018 77.0221 48.8397 76.3481 49.9182C40.7572 50.7271 42.375 47.896 41.9705 46.2782C41.647 44.984 42.375 44.1212 42.7794 43.8516C43.049 43.9864 45.2869 44.6604 52.0816 46.2782Z" fill="#717BBC"/>
<path d="M57.8614 55.6836C62.7949 57.3697 72.0549 56.3862 76.0683 55.6836C76.773 56.0208 75.9704 58.3532 75.4809 59.4773C64.2124 60.0302 51.6748 57.6035 51.6748 57.1991C51.6748 55.83 50.9767 55.0534 51.2703 54.7724C51.4661 54.9129 52.928 53.9976 57.8614 55.6836Z" fill="#717BBC"/>
<path d="M67.7151 65.1258C61.1032 66.2837 49.1023 64.1135 43.9283 62.8837C42.9742 63.15 43.7927 65.6911 44.3212 66.9283C58.9886 68.8949 75.6083 67.898 75.6482 67.4745C75.7834 66.0409 76.7721 65.3137 76.4161 64.9833C76.1465 65.1063 74.3269 63.9679 67.7151 65.1258Z" fill="#717BBC"/>
</g>
<defs>
<clipPath id="clip0_11745_137016">
<rect x="0.539062" y="0.539062" width="107.923" height="107.923" rx="53.9614" fill="white"/>
</clipPath>
</defs>
</svg>
