<svg width="20" height="20" viewBox="0 0 20 20" fill="none" xmlns="http://www.w3.org/2000/svg">
<path d="M10.0001 6.57812L9.10838 8.12812C8.90838 8.46979 9.07505 8.75312 9.46672 8.75312H10.5251C10.9251 8.75312 11.0834 9.03646 10.8834 9.37812L10.0001 10.9281" stroke="black" stroke-width="1.5" stroke-linecap="round" stroke-linejoin="round"/>
<path d="M6.91745 15.0341V14.0675C5.00078 12.9091 3.42578 10.6508 3.42578 8.2508C3.42578 4.1258 7.21745 0.892464 11.5008 1.8258C13.3841 2.24246 15.0341 3.49246 15.8924 5.21746C17.6341 8.71746 15.8008 12.4341 13.1091 14.0591V15.0258C13.1091 15.2675 13.2008 15.8258 12.3091 15.8258H7.71745C6.80078 15.8341 6.91745 15.4758 6.91745 15.0341Z" stroke="black" stroke-width="1.5" stroke-linecap="round" stroke-linejoin="round"/>
<path d="M7.08398 18.3359C8.99232 17.7943 11.009 17.7943 12.9173 18.3359" stroke="#292D32" stroke-width="1.5" stroke-linecap="round" stroke-linejoin="round"/>
</svg>
