<svg width="5" height="16" viewBox="0 0 5 16" fill="none" xmlns="http://www.w3.org/2000/svg">
<path d="M2.49935 8.83594C2.95959 8.83594 3.33268 8.46284 3.33268 8.0026C3.33268 7.54237 2.95959 7.16927 2.49935 7.16927C2.03911 7.16927 1.66602 7.54237 1.66602 8.0026C1.66602 8.46284 2.03911 8.83594 2.49935 8.83594Z" stroke="#98A2B3" stroke-width="1.66667" stroke-linecap="round" stroke-linejoin="round"/>
<path d="M2.49935 3.0026C2.95959 3.0026 3.33268 2.62951 3.33268 2.16927C3.33268 1.70903 2.95959 1.33594 2.49935 1.33594C2.03911 1.33594 1.66602 1.70903 1.66602 2.16927C1.66602 2.62951 2.03911 3.0026 2.49935 3.0026Z" stroke="#98A2B3" stroke-width="1.66667" stroke-linecap="round" stroke-linejoin="round"/>
<path d="M2.49935 14.6693C2.95959 14.6693 3.33268 14.2962 3.33268 13.8359C3.33268 13.3757 2.95959 13.0026 2.49935 13.0026C2.03911 13.0026 1.66602 13.3757 1.66602 13.8359C1.66602 14.2962 2.03911 14.6693 2.49935 14.6693Z" stroke="#98A2B3" stroke-width="1.66667" stroke-linecap="round" stroke-linejoin="round"/>
</svg>
