<svg width="101" height="96" viewBox="0 0 101 96" fill="none" xmlns="http://www.w3.org/2000/svg">
<path d="M50.5002 96C78.0379 96 100.362 74.5097 100.362 48C100.362 21.4903 78.0379 0 50.5002 0C22.9624 0 0.638672 21.4903 0.638672 48C0.638672 74.5097 22.9624 96 50.5002 96Z" fill="#D7F3E6" fill-opacity="0.5"/>
<path d="M50.5004 15.8984C32.0947 15.8984 17.1572 30.2783 17.1572 47.9968C17.1572 65.7153 32.0947 80.0952 50.5004 80.0952C68.9061 80.0952 83.8436 65.7153 83.8436 47.9968C83.8436 30.2783 68.9061 15.8984 50.5004 15.8984Z" fill="#3ABC5E"/>
<path fill-rule="evenodd" clip-rule="evenodd" d="M69.9403 37.3261C70.695 38.0527 70.695 39.2307 69.9403 39.9561L48.6882 60.4159C47.9336 61.1424 46.7098 61.1424 45.9563 60.4159L36.2955 51.1158C35.5408 50.3892 35.5408 49.2124 36.2955 48.4858C37.0502 47.7593 38.2727 47.7593 39.0274 48.4858L47.3217 56.4704L67.2084 37.3261C67.9631 36.5996 69.1856 36.5996 69.9403 37.3261Z" fill="white"/>
</svg>
