<svg width="57" height="57" viewBox="0 0 57 57" fill="none" xmlns="http://www.w3.org/2000/svg">
<rect x="4.5" y="4.5" width="48" height="48" rx="24" fill="#F2F4F7"/>
<path d="M38.5 22.5V24.92C38.5 26.5 37.5 27.5 35.92 27.5H32.5V20.51C32.5 19.4 33.41 18.5 34.52 18.5C35.61 18.51 36.61 18.95 37.33 19.67C38.05 20.4 38.5 21.4 38.5 22.5Z" stroke="#292D32" stroke-width="1.5" stroke-miterlimit="10" stroke-linecap="round" stroke-linejoin="round"/>
<path d="M18.5 23.5V37.5C18.5 38.33 19.44 38.8 20.1 38.3L21.81 37.02C22.21 36.72 22.77 36.76 23.13 37.12L24.79 38.79C25.18 39.18 25.82 39.18 26.21 38.79L27.89 37.11C28.24 36.76 28.8 36.72 29.19 37.02L30.9 38.3C31.56 38.79 32.5 38.32 32.5 37.5V20.5C32.5 19.4 33.4 18.5 34.5 18.5H23.5H22.5C19.5 18.5 18.5 20.29 18.5 22.5V23.5Z" stroke="#292D32" stroke-width="1.5" stroke-miterlimit="10" stroke-linecap="round" stroke-linejoin="round"/>
<path d="M25.5 29.5078H28.5" stroke="#292D32" stroke-width="1.5" stroke-linecap="round" stroke-linejoin="round"/>
<path d="M25.5 25.5078H28.5" stroke="#292D32" stroke-width="1.5" stroke-linecap="round" stroke-linejoin="round"/>
<path d="M22.4961 29.5H22.5051" stroke="#292D32" stroke-width="2" stroke-linecap="round" stroke-linejoin="round"/>
<path d="M22.4961 25.5H22.5051" stroke="#292D32" stroke-width="2" stroke-linecap="round" stroke-linejoin="round"/>
<rect x="4.5" y="4.5" width="48" height="48" rx="24" stroke="#F9FAFB" stroke-width="8"/>
</svg>
