<svg width="47" height="46" viewBox="0 0 47 46" fill="none" xmlns="http://www.w3.org/2000/svg">
<rect x="3.5" y="3" width="40" height="40" rx="20" fill="#F2F4F7"/>
<g clip-path="url(#clip0_6186_18233)">
<path d="M26.8326 26.3313L23.4992 22.998M23.4992 22.998L20.1659 26.3313M23.4992 22.998V30.498M30.4909 28.323C31.3037 27.8798 31.9458 27.1787 32.3158 26.3301C32.6858 25.4816 32.7627 24.534 32.5344 23.6369C32.3061 22.7397 31.7855 21.9442 31.0548 21.3758C30.3241 20.8074 29.425 20.4986 28.4992 20.498H27.4492C27.197 19.5223 26.7269 18.6166 26.0742 17.8488C25.4215 17.081 24.6033 16.4712 23.681 16.0651C22.7587 15.6591 21.7564 15.4674 20.7493 15.5045C19.7423 15.5416 18.7568 15.8065 17.8669 16.2793C16.977 16.7521 16.2058 17.4205 15.6114 18.2343C15.017 19.048 14.6148 19.9859 14.4351 20.9774C14.2553 21.969 14.3027 22.9884 14.5736 23.959C14.8445 24.9296 15.3319 25.8262 15.9992 26.5813" stroke="#475467" stroke-width="1.66667" stroke-linecap="round" stroke-linejoin="round"/>
</g>
<rect x="3.5" y="3" width="40" height="40" rx="20" stroke="#F9FAFB" stroke-width="6"/>
<defs>
<clipPath id="clip0_6186_18233">
<rect width="20" height="20" fill="white" transform="translate(13.5 13)"/>
</clipPath>
</defs>
</svg>
