<svg width="346" height="229" viewBox="0 0 346 229" fill="none" xmlns="http://www.w3.org/2000/svg">
<g clip-path="url(#clip0_2248_4537)">
<g clip-path="url(#clip1_2248_4537)">
<path d="M337.314 228.119H165.748C161.082 228.119 157.285 223.937 157.285 218.796V91.7544C157.265 90.7853 157.516 89.8298 158.01 88.9942C158.503 88.1587 159.22 87.4761 160.08 87.0224L224.913 47.942C228.466 46.1855 232.379 45.2696 236.347 45.2656C240.314 45.2616 244.229 46.1696 247.787 47.9189L342.965 87.0185C343.83 87.4705 344.551 88.1534 345.048 88.9906C345.544 89.8278 345.797 90.7862 345.777 91.7584V218.796C345.777 223.937 341.981 228.119 337.314 228.119Z" fill="#F2F2F2"/>
<path d="M311.981 227.981H164.653C160.629 227.981 157.355 225.029 157.355 221.401V132.597C157.374 131.857 157.616 131.14 158.05 130.539C158.483 129.937 159.089 129.48 159.787 129.226L228.386 101.902C234.689 99.4186 241.705 99.4151 248.011 101.892L316.843 129.227C317.542 129.481 318.148 129.938 318.583 130.54C319.017 131.141 319.26 131.859 319.279 132.6V221.401C319.279 225.029 316.005 227.981 311.981 227.981Z" fill="#554BDB"/>
<path d="M203.917 166.955V157.77C203.917 156.572 203.44 155.423 202.589 154.576C201.738 153.729 200.585 153.253 199.381 153.253H176.106C174.903 153.253 173.749 153.729 172.898 154.576C172.048 155.423 171.57 156.572 171.57 157.77V166.955H203.917Z" fill="white"/>
<path d="M171.57 168.397V182.629C171.57 183.827 172.048 184.976 172.898 185.823C173.749 186.67 174.903 187.146 176.106 187.146H199.381C200.585 187.146 201.738 186.67 202.589 185.823C203.44 184.976 203.917 183.827 203.917 182.629V168.397H171.57Z" fill="white"/>
<path d="M313.676 141.745L243.795 116.237C239.548 114.687 234.886 114.687 230.638 116.237L160.758 141.745C159.285 142.283 157.703 142.458 156.148 142.257C154.592 142.056 153.108 141.484 151.822 140.589C150.536 139.695 149.486 138.504 148.761 137.119C148.036 135.734 147.657 134.195 147.657 132.633C147.657 130.646 148.27 128.706 149.413 127.076C150.557 125.447 152.175 124.206 154.049 123.522L230.638 95.5656C234.886 94.0153 239.548 94.0153 243.795 95.5656L320.384 123.522C322.259 124.206 323.877 125.447 325.02 127.076C326.163 128.706 326.776 130.646 326.776 132.633C326.776 134.195 326.397 135.734 325.672 137.119C324.947 138.504 323.897 139.695 322.611 140.589C321.325 141.484 319.841 142.056 318.285 142.257C316.73 142.458 315.148 142.283 313.676 141.745Z" fill="#3F3D56"/>
<path d="M248.5 228.406H229.823C227.841 228.404 225.941 227.619 224.539 226.224C223.138 224.828 222.349 222.936 222.347 220.962V175.924C222.349 173.95 223.138 172.058 224.539 170.663C225.941 169.267 227.841 168.482 229.823 168.48H248.5C250.482 168.482 252.383 169.267 253.784 170.663C255.186 172.058 255.974 173.95 255.976 175.924V220.962C255.974 222.936 255.186 224.828 253.784 226.224C252.383 227.619 250.482 228.404 248.5 228.406ZM229.823 169.756C228.181 169.758 226.606 170.408 225.445 171.565C224.284 172.721 223.631 174.289 223.629 175.924V220.962C223.631 222.597 224.284 224.165 225.445 225.322C226.606 226.478 228.181 227.128 229.823 227.13H248.5C250.143 227.128 251.717 226.478 252.878 225.322C254.04 224.165 254.693 222.597 254.695 220.962V175.924C254.693 174.289 254.04 172.721 252.878 171.565C251.717 170.408 250.143 169.758 248.5 169.756H229.823Z" fill="#3F3D56"/>
<path d="M250.312 72.6906C250.011 69.3422 248.462 66.2272 245.971 63.9585C243.48 61.6898 240.226 60.4316 236.85 60.4316C233.474 60.4316 230.22 61.6898 227.729 63.9585C225.237 66.2272 223.689 69.3422 223.388 72.6906H250.312Z" fill="white"/>
<path d="M223.338 74.1328C223.4 77.6603 224.851 81.0223 227.378 83.495C229.905 85.9676 233.307 87.3531 236.85 87.3531C240.393 87.3531 243.794 85.9676 246.322 83.495C248.849 81.0223 250.3 77.6603 250.362 74.1328H223.338Z" fill="white"/>
<path d="M248.196 89.0081H225.504C224.423 89.0081 223.386 88.5805 222.622 87.8193C221.858 87.0582 221.428 86.0259 221.428 84.9495C221.428 83.8731 221.858 82.8407 222.622 82.0796C223.386 81.3185 224.423 80.8909 225.504 80.8909H248.196C249.277 80.8909 250.313 81.3185 251.078 82.0796C251.842 82.8407 252.272 83.8731 252.272 84.9495C252.272 86.0259 251.842 87.0582 251.078 87.8193C250.313 88.5805 249.277 89.0081 248.196 89.0081Z" fill="#CCCCCC"/>
<path d="M171.811 182.551C170.844 182.551 169.915 182.934 169.231 183.615C168.547 184.297 168.162 185.221 168.162 186.184C168.162 187.148 168.547 188.072 169.231 188.753C169.915 189.435 170.844 189.817 171.811 189.817H203.676C204.644 189.817 205.572 189.435 206.256 188.753C206.94 188.072 207.325 187.148 207.325 186.184C207.325 185.221 206.94 184.297 206.256 183.615C205.572 182.934 204.644 182.551 203.676 182.551H171.811Z" fill="#CCCCCC"/>
<path d="M270.785 168.397V182.629C270.785 183.827 271.263 184.976 272.113 185.823C272.964 186.67 274.118 187.146 275.321 187.146H298.597C299.8 187.146 300.953 186.67 301.804 185.823C302.655 184.976 303.133 183.827 303.133 182.629V168.397H270.785Z" fill="white"/>
<path d="M303.133 166.955V157.77C303.133 156.572 302.655 155.423 301.804 154.576C300.953 153.729 299.8 153.253 298.597 153.253H275.321C274.118 153.253 272.964 153.729 272.113 154.576C271.263 155.423 270.785 156.572 270.785 157.77V166.955H303.133Z" fill="white"/>
<path d="M250.266 199.885C251.733 199.885 252.922 198.702 252.922 197.241C252.922 195.781 251.733 194.597 250.266 194.597C248.8 194.597 247.611 195.781 247.611 197.241C247.611 198.702 248.8 199.885 250.266 199.885Z" fill="#3F3D56"/>
<path d="M344.98 228.5H84.3847C84.331 228.5 84.2796 228.447 84.2416 228.354C84.2037 228.26 84.1824 228.133 84.1824 228C84.1824 227.867 84.2037 227.74 84.2416 227.646C84.2796 227.553 84.331 227.5 84.3847 227.5H344.98C345.034 227.5 345.085 227.553 345.123 227.646C345.161 227.74 345.182 227.867 345.182 228C345.182 228.133 345.161 228.26 345.123 228.354C345.085 228.447 345.034 228.5 344.98 228.5Z" fill="#CCCCCC"/>
<path d="M302.65 190.243H270.785C269.704 190.243 268.667 189.815 267.903 189.054C267.138 188.293 266.709 187.261 266.709 186.184C266.709 185.108 267.138 184.076 267.903 183.314C268.667 182.553 269.704 182.126 270.785 182.126H302.65C303.731 182.126 304.767 182.553 305.532 183.314C306.296 184.076 306.726 185.108 306.726 186.184C306.726 187.261 306.296 188.293 305.532 189.054C304.767 189.815 303.731 190.243 302.65 190.243Z" fill="#CCCCCC"/>
<path d="M345.454 95.9922C345.454 95.9922 337.727 95.4464 321.958 94.7161C303.161 61.9613 242.069 54.0661 242.069 30.5001L317.157 30.5C324.67 30.5 331.875 33.4717 337.187 38.7614C342.5 44.0512 345.484 51.2256 345.484 58.7063L345.454 95.9922Z" fill="#CCCCCC"/>
<path d="M280.329 39.1113C280.159 39.1115 279.996 39.1788 279.876 39.2984C279.756 39.418 279.688 39.5802 279.688 39.7494V61.0528C279.688 61.2219 279.756 61.3841 279.876 61.5038C279.996 61.6234 280.159 61.6907 280.329 61.6909H293.655C293.825 61.6907 293.988 61.6234 294.108 61.5038C294.228 61.3841 294.296 61.2219 294.296 61.0528V39.7494C294.296 39.5802 294.228 39.418 294.108 39.2984C293.988 39.1788 293.825 39.1115 293.655 39.1113H280.329Z" fill="#F2F2F2"/>
<path d="M317.343 94.2742L247.462 52.3346C243.215 50.7843 238.553 50.7843 234.306 52.3346L164.425 94.2742C162.952 94.8118 161.371 94.9875 159.815 94.7863C158.26 94.5851 156.776 94.0129 155.49 93.1185C154.204 92.2241 153.154 91.0337 152.428 89.6487C151.703 88.2636 151.325 86.7247 151.325 85.1627C151.325 83.1749 151.938 81.2352 153.081 79.6056C154.224 77.976 155.842 76.7353 157.716 76.0512L234.306 31.6627C238.553 30.1124 243.215 30.1124 247.462 31.6627L324.052 76.0511C325.926 76.7353 327.544 77.976 328.687 79.6056C329.83 81.2351 330.443 83.1749 330.443 85.1627C330.443 86.7247 330.064 88.2636 329.339 89.6486C328.614 91.0337 327.564 92.2241 326.278 93.1185C324.992 94.0129 323.508 94.5851 321.953 94.7863C320.397 94.9875 318.816 94.8118 317.343 94.2742Z" fill="#CCCCCC"/>
</g>
<g clip-path="url(#clip2_2248_4537)">
<path d="M123.192 81.6867C114.138 81.6867 109.226 80.5828 107.511 78.2263C105.998 76.1472 107.012 73.4038 108.187 70.2275C109.032 67.9443 109.989 65.3567 109.989 62.7956C109.989 50.3393 116.319 44.0232 128.804 44.0232C135.015 44.0232 141.685 47.3155 146.645 52.8302C151.154 57.8436 153.4 63.8438 152.808 69.2921C152.322 73.7603 150.237 76.6988 146.248 78.5401L146.014 78.6477L145.948 78.3999C145.603 77.1175 145.02 75.9111 144.229 74.8437C144.152 76.5193 143.729 78.1609 142.986 79.6655L142.943 79.7513L142.851 79.7776C138.335 81.0609 132.976 81.4086 128.812 81.5679C126.785 81.6467 124.912 81.6863 123.192 81.6867Z" fill="#2F2E41"/>
<path d="M125.66 99.0422C125.313 98.0244 124.727 97.1039 123.952 96.357C123.177 95.6101 122.235 95.0583 121.204 94.7476C120.172 94.4368 119.081 94.376 118.021 94.5701C116.961 94.7642 115.963 95.2077 115.11 95.8638L85.3272 113.63L76.0077 90.9417C76.795 89.7893 77.1963 88.4178 77.154 87.0239C77.1118 85.6299 76.6281 84.2851 75.7725 83.1824C74.9168 82.0796 73.7332 81.2756 72.3912 80.8855C71.0492 80.4955 69.6179 80.5395 68.3026 81.0112C66.9872 81.483 65.8554 82.3582 65.0694 83.5114C64.2834 84.6647 63.8837 86.0366 63.9276 87.4305C63.9714 88.8244 64.4566 90.1686 65.3135 91.2704C66.1703 92.3722 67.3549 93.1749 68.6973 93.5635C69.2717 100.106 72.464 129.348 83.5691 128.285C92.9035 127.392 116.085 111.988 123.285 106.648C124.437 105.794 125.287 104.598 125.714 103.231C126.141 101.864 126.122 100.398 125.66 99.0422Z" fill="#FFB6B6"/>
<path d="M148.103 228.08H122.182L117.835 206.636L116.425 228.08H92.3458C92.3551 211.24 93.2343 194.411 94.9799 177.662L95.2784 176.647L95.7498 175.025L96.0483 174.006L101.031 156.934L101.425 155.579H131.429C133.156 157.197 134.748 158.952 136.191 160.827C136.68 161.448 137.19 162.121 137.714 162.846C138.077 163.36 138.453 163.899 138.83 164.465C142.173 169.431 144.672 174.913 146.226 180.691V180.695C146.49 181.684 146.723 182.695 146.927 183.729V183.733C147.108 184.653 147.268 185.585 147.394 186.539C147.489 187.233 147.571 187.937 147.632 188.649C147.992 192.594 147.866 196.568 147.255 200.482L148.103 228.08Z" fill="#2F2E41"/>
<path d="M10.6673 32.0007C12.3507 31.3506 13.3479 29.8763 12.8946 28.7079C12.4413 27.5395 10.7091 27.1194 9.02573 27.7695C7.34232 28.4197 6.34515 29.894 6.79847 31.0624C7.25178 32.2308 8.98393 32.6509 10.6673 32.0007Z" fill="#29C775"/>
<path d="M31.8629 29.2881C33.5463 28.6379 34.5435 27.1637 34.0902 25.9953C33.6369 24.8268 31.9047 24.4067 30.2213 25.0569C28.5379 25.7071 27.5407 27.1813 27.994 28.3497C28.4473 29.5181 30.1795 29.9383 31.8629 29.2881Z" fill="#3F3D56"/>
<path d="M8.82922 50.0432C10.5126 49.3931 11.5098 47.9188 11.0565 46.7504C10.6032 45.582 8.87101 45.1618 7.18761 45.812C5.5042 46.4622 4.50701 47.9364 4.96033 49.1049C5.41365 50.2733 7.14581 50.6934 8.82922 50.0432Z" fill="#FFC655"/>
<path d="M2.69746 58.0018C3.46975 57.8194 3.88281 56.7736 3.62004 55.6659C3.35727 54.5583 2.51818 53.8082 1.74589 53.9906C0.973598 54.173 0.56055 55.2187 0.823318 56.3264C1.08609 57.434 1.92516 58.1841 2.69746 58.0018Z" fill="#29C775"/>
<path d="M2.57136 71.4759C3.34365 71.2935 3.7567 70.2477 3.49393 69.1401C3.23116 68.0324 2.39208 67.2823 1.61979 67.4647C0.847499 67.6471 0.434451 68.6929 0.697219 69.8005C0.959987 70.9082 1.79907 71.6583 2.57136 71.4759Z" fill="#3F3D56"/>
<path d="M21.174 43.5679C21.9463 43.3855 22.3594 42.3397 22.0966 41.2321C21.8338 40.1244 20.9947 39.3744 20.2225 39.5567C19.4502 39.7391 19.0371 40.7849 19.2999 41.8925C19.5626 43.0002 20.4017 43.7503 21.174 43.5679Z" fill="#29C775"/>
<path d="M10.0109 40.8631C10.7832 40.6807 11.1963 39.6349 10.9335 38.5273C10.6707 37.4196 9.83166 36.6695 9.05937 36.8519C8.28707 37.0343 7.87403 38.0801 8.13679 39.1877C8.39956 40.2954 9.23864 41.0455 10.0109 40.8631Z" fill="#FFC655"/>
<path d="M21.843 28.4556C22.6153 28.2732 23.0283 27.2274 22.7655 26.1198C22.5028 25.0121 21.6637 24.262 20.8914 24.4444C20.1191 24.6268 19.7061 25.6726 19.9688 26.7802C20.2316 27.8879 21.0707 28.638 21.843 28.4556Z" fill="#3F3D56"/>
<path d="M27.3459 121.713C28.1598 120.759 27.7053 119.039 26.3308 117.871C24.9562 116.704 23.182 116.531 22.3681 117.485C21.5541 118.439 22.0086 120.159 23.3832 121.326C24.7578 122.494 26.5319 122.667 27.3459 121.713Z" fill="#29C775"/>
<path d="M14.8627 104.408C15.6767 103.454 15.2222 101.734 13.8476 100.567C12.473 99.3994 10.6989 99.2264 9.88492 100.18C9.07097 101.135 9.52546 102.854 10.9 104.022C12.2746 105.189 14.0488 105.362 14.8627 104.408Z" fill="#3F3D56"/>
<path d="M44.123 114.735C44.9369 113.781 44.4824 112.061 43.1079 110.893C41.7333 109.726 39.9591 109.553 39.1452 110.507C38.3312 111.461 38.7857 113.181 40.1603 114.348C41.5349 115.516 43.309 115.689 44.123 114.735Z" fill="#FFC655"/>
<path d="M52.4575 114.926C53.3087 114.168 53.5702 113.075 53.0418 112.484C52.5133 111.893 51.3949 112.029 50.5438 112.787C49.6927 113.544 49.4311 114.638 49.9596 115.229C50.488 115.819 51.6064 115.684 52.4575 114.926Z" fill="#29C775"/>
<path d="M64.3931 108.621C65.2442 107.863 65.5058 106.769 64.9773 106.179C64.4489 105.588 63.3305 105.723 62.4793 106.481C61.6282 107.239 61.3666 108.333 61.8951 108.923C62.4236 109.514 63.5419 109.379 64.3931 108.621Z" fill="#3F3D56"/>
<path d="M30.9385 105.588C31.7896 104.83 32.0512 103.736 31.5227 103.146C30.9943 102.555 29.8759 102.69 29.0248 103.448C28.1736 104.206 27.912 105.3 28.4405 105.89C28.969 106.481 30.0874 106.346 30.9385 105.588Z" fill="#29C775"/>
<path d="M33.8699 116.67C34.721 115.912 34.9826 114.818 34.4541 114.228C33.9257 113.637 32.8073 113.772 31.9561 114.53C31.105 115.288 30.8434 116.382 31.3719 116.972C31.9004 117.563 33.0188 117.428 33.8699 116.67Z" fill="#FFC655"/>
<path d="M17.3008 112.196C18.1519 111.438 18.4135 110.345 17.885 109.754C17.3566 109.164 16.2382 109.299 15.3871 110.057C14.5359 110.815 14.2744 111.908 14.8028 112.499C15.3313 113.09 16.4497 112.954 17.3008 112.196Z" fill="#3F3D56"/>
<path d="M111.207 10.7265C112.334 10.1736 112.602 8.41517 111.805 6.799C111.009 5.18284 109.449 4.32091 108.323 4.87384C107.196 5.42677 106.928 7.18516 107.725 8.80133C108.521 10.4175 110.081 11.2794 111.207 10.7265Z" fill="#29C775"/>
<path d="M115.773 31.5549C116.9 31.002 117.168 29.2435 116.371 27.6274C115.574 26.0112 114.015 25.1493 112.888 25.7022C111.761 26.2551 111.494 28.0135 112.29 29.6297C113.087 31.2459 114.646 32.1078 115.773 31.5549Z" fill="#3F3D56"/>
<path d="M93.0326 10.4802C94.1595 9.92723 94.4272 8.16884 93.6305 6.55267C92.8339 4.9365 91.2746 4.07457 90.1478 4.62749C89.0209 5.18042 88.7532 6.93883 89.5499 8.555C90.3465 10.1712 91.9058 11.0331 93.0326 10.4802Z" fill="#FFC655"/>
<path d="M83.4797 3.8703C84.5626 3.51208 85.2379 2.61241 84.9882 1.86081C84.7384 1.10921 83.6581 0.790295 82.5752 1.14851C81.4923 1.50673 80.817 2.40642 81.0667 3.15802C81.3165 3.90961 82.3968 4.22851 83.4797 3.8703Z" fill="#29C775"/>
<path d="M70.0158 4.92572C71.0987 4.5675 71.774 3.66782 71.5243 2.91622C71.2745 2.16462 70.1942 1.84572 69.1113 2.20394C68.0285 2.56215 67.3531 3.46183 67.6029 4.21343C67.8526 4.96503 68.9329 5.28393 70.0158 4.92572Z" fill="#3F3D56"/>
<path d="M99.5096 20.9697C100.592 20.6114 101.268 19.7118 101.018 18.9602C100.768 18.2086 99.688 17.8897 98.6051 18.2479C97.5223 18.6061 96.8469 19.5058 97.0966 20.2574C97.3464 21.009 98.4267 21.3279 99.5096 20.9697Z" fill="#29C775"/>
<path d="M101.232 9.63762C102.315 9.27941 102.99 8.37973 102.74 7.62813C102.49 6.87653 101.41 6.55763 100.327 6.91584C99.2444 7.27406 98.569 8.17374 98.8188 8.92534C99.0686 9.67694 100.149 9.99584 101.232 9.63762Z" fill="#FFC655"/>
<path d="M114.656 20.3102C115.739 19.952 116.415 19.0523 116.165 18.3007C115.915 17.5491 114.835 17.2302 113.752 17.5885C112.669 17.9467 111.994 18.8464 112.243 19.598C112.493 20.3495 113.573 20.6684 114.656 20.3102Z" fill="#3F3D56"/>
<path d="M118.813 85.1546L133.093 84.4207L139.726 94.8777C139.726 94.8777 152.206 96.9594 151.341 111.632C150.476 126.305 136.157 139.18 136.157 139.18L136.769 146.821L135.706 149.852L135.842 151.554L137.292 153.356L137.442 155.22L136.157 158.168L137.904 160.992L101.168 157.441L99.8242 152.558L101.784 149.936L100.689 146.517L102.335 143.227L103.193 132.779C103.193 132.779 93.8053 118.707 104.582 108.109L108.907 100.772L113.747 94.881L118.813 85.1546Z" fill="#554BDB"/>
<path d="M125.912 82.202C134.269 82.202 141.044 75.4426 141.044 67.1045C141.044 58.7664 134.269 52.0071 125.912 52.0071C117.555 52.0071 110.781 58.7664 110.781 67.1045C110.781 75.4426 117.555 82.202 125.912 82.202Z" fill="#FFB6B6"/>
<path d="M123.886 66.1893C122.582 66.1893 121.279 66.1526 119.977 66.0793L119.744 66.0662L119.774 65.8357C119.966 64.3946 119.858 62.9296 119.457 61.532C118.776 63.1233 117.763 64.5514 116.484 65.721L116.412 65.787L116.315 65.7765C112.778 65.3904 109.272 64.7525 105.826 63.8678L105.694 63.8341L105.668 63.7009C105.41 62.4398 105.277 61.1566 105.27 59.8696C105.27 55.8493 106.731 52.4656 109.383 50.3418C112.271 48.03 116.41 47.3191 121.042 48.3387H135.854C137.482 48.3405 139.043 48.9868 140.195 50.1356C141.346 51.2845 141.994 52.8421 141.996 54.4668V63.8254L141.834 63.8676C135.976 65.4038 129.944 66.184 123.886 66.1893Z" fill="#2F2E41"/>
<path d="M20.6358 49.396C19.9727 49.638 19.4329 50.1325 19.1348 50.7711C18.8367 51.4096 18.8046 52.1401 19.0457 52.8022L35.0247 96.548C35.2672 97.2095 35.7628 97.7481 36.4028 98.0456C37.0428 98.343 37.7749 98.375 38.4385 98.1346L100.456 75.5839C101.119 75.3419 101.659 74.8474 101.957 74.2088C102.255 73.5703 102.287 72.8398 102.046 72.1777L86.067 28.4319C85.8245 27.7704 85.3289 27.2318 84.6889 26.9343C84.0489 26.6369 83.3168 26.6049 82.6531 26.8453L20.6358 49.396Z" fill="#CCCCCC"/>
<path d="M77.3743 81.5651L39.4132 95.3685C38.699 95.6273 37.911 95.5928 37.2222 95.2727C36.5334 94.9525 36 94.3729 35.739 93.6608L21.2461 53.9838C20.9867 53.2711 21.0212 52.485 21.342 51.7977C21.6629 51.1104 22.2439 50.5782 22.9575 50.3178L81.4705 29.0414C82.1847 28.7825 82.9727 28.817 83.6615 29.1371C84.3504 29.4572 84.8838 30.0369 85.1448 30.749L92.1476 49.9205C94.3866 56.0719 94.0887 62.8582 91.3191 68.7907C88.5495 74.7231 83.5345 79.3172 77.3743 81.5651Z" fill="white"/>
<path d="M50.0594 52.9018L41.0386 56.1819C40.9254 56.223 40.8053 56.2415 40.685 56.2363C40.5647 56.2311 40.4466 56.2024 40.3375 56.1516C40.2283 56.1009 40.1303 56.0293 40.0489 55.9407C39.9675 55.8522 39.9044 55.7485 39.8632 55.6356C39.8219 55.5228 39.8034 55.4029 39.8086 55.2829C39.8138 55.1629 39.8426 55.045 39.8935 54.9361C39.9443 54.8272 40.0162 54.7294 40.1049 54.6482C40.1936 54.567 40.2975 54.504 40.4107 54.4629L49.4315 51.1827C49.66 51.0997 49.9122 51.1105 50.1326 51.213C50.353 51.3154 50.5236 51.501 50.6069 51.729C50.6902 51.957 50.6793 52.2086 50.5766 52.4285C50.4739 52.6484 50.2879 52.8187 50.0594 52.9018Z" fill="#554BDB"/>
<path d="M71.5652 49.0641L42.3226 59.6973C42.2094 59.7386 42.0892 59.7572 41.9688 59.7521C41.8484 59.747 41.7302 59.7183 41.6209 59.6676C41.5117 59.6169 41.4135 59.5452 41.332 59.4567C41.2506 59.3681 41.1874 59.2643 41.1461 59.1514C41.1049 59.0384 41.0863 58.9185 41.0916 58.7983C41.0968 58.6782 41.1257 58.5603 41.1767 58.4514C41.2276 58.3424 41.2996 58.2445 41.3885 58.1634C41.4774 58.0822 41.5814 58.0193 41.6947 57.9783L70.9372 47.3451C71.0504 47.304 71.1705 47.2855 71.2908 47.2906C71.4111 47.2958 71.5292 47.3246 71.6383 47.3753C71.7475 47.4261 71.8456 47.4977 71.9269 47.5863C72.0083 47.6748 72.0714 47.7785 72.1127 47.8914C72.1539 48.0042 72.1724 48.1241 72.1672 48.2441C72.162 48.3641 72.1332 48.482 72.0824 48.5909C72.0315 48.6998 71.9597 48.7976 71.8709 48.8788C71.7822 48.96 71.6783 49.023 71.5652 49.0641Z" fill="#554BDB"/>
<path d="M73.0391 53.0991L43.7965 63.7323C43.6834 63.7734 43.5632 63.7919 43.4429 63.7867C43.3226 63.7815 43.2046 63.7528 43.0954 63.702C42.9863 63.6513 42.8882 63.5796 42.8068 63.4911C42.7254 63.4026 42.6623 63.2989 42.6211 63.186C42.5799 63.0732 42.5613 62.9533 42.5665 62.8333C42.5717 62.7132 42.6006 62.5954 42.6514 62.4865C42.7023 62.3776 42.7741 62.2798 42.8628 62.1986C42.9516 62.1174 43.0555 62.0544 43.1686 62.0133L72.4112 51.3801C72.6396 51.2974 72.8915 51.3085 73.1117 51.411C73.3319 51.5135 73.5023 51.699 73.5855 51.9268C73.6687 52.1545 73.6579 52.4059 73.5555 52.6258C73.453 52.8456 73.2673 53.0158 73.0391 53.0991Z" fill="#554BDB"/>
<path d="M74.513 57.1344L45.2705 67.7676C45.1573 67.8089 45.0371 67.8275 44.9167 67.8225C44.7963 67.8174 44.6781 67.7887 44.5688 67.738C44.4596 67.6873 44.3614 67.6156 44.2799 67.527C44.1984 67.4384 44.1353 67.3347 44.094 67.2217C44.0527 67.1087 44.0342 66.9888 44.0394 66.8687C44.0447 66.7486 44.0736 66.6306 44.1246 66.5217C44.1755 66.4127 44.2475 66.3149 44.3364 66.2337C44.4252 66.1525 44.5293 66.0896 44.6426 66.0486L73.8851 55.4154C73.9982 55.3743 74.1184 55.3558 74.2387 55.361C74.359 55.3662 74.4771 55.3949 74.5862 55.4457C74.6954 55.4964 74.7934 55.5681 74.8748 55.6566C74.9562 55.7451 75.0193 55.8488 75.0605 55.9617C75.1018 56.0746 75.1203 56.1944 75.1151 56.3144C75.1099 56.4345 75.0811 56.5523 75.0302 56.6612C74.9794 56.7701 74.9075 56.8679 74.8188 56.9491C74.7301 57.0303 74.6262 57.0933 74.513 57.1344Z" fill="#554BDB"/>
<path d="M75.987 61.1696L46.7444 71.8027C46.5159 71.8858 46.2637 71.8749 46.0433 71.7725C45.8229 71.67 45.6522 71.4844 45.569 71.2565C45.4857 71.0285 45.4966 70.7769 45.5993 70.557C45.702 70.337 45.888 70.1668 46.1165 70.0837L75.3591 59.4506C75.4722 59.4094 75.5923 59.3909 75.7126 59.3961C75.8329 59.4013 75.951 59.4301 76.0601 59.4808C76.1693 59.5315 76.2674 59.6032 76.3487 59.6918C76.4301 59.7803 76.4932 59.884 76.5345 59.9968C76.5757 60.1097 76.5942 60.2296 76.589 60.3496C76.5838 60.4696 76.555 60.5874 76.5041 60.6963C76.4533 60.8052 76.3815 60.9031 76.2927 60.9843C76.204 61.0655 76.1001 61.1284 75.987 61.1696Z" fill="#554BDB"/>
<path d="M168.774 72.3763L152.763 110.603C152.08 112.221 150.787 113.505 149.163 114.18C147.539 114.855 145.714 114.865 144.082 114.209C143.238 113.87 142.472 113.363 141.831 112.718C141.189 112.074 140.686 111.306 140.352 110.461C140.018 109.617 139.86 108.713 139.887 107.805C139.915 106.898 140.127 106.005 140.511 105.182L158.363 65.9825L168.203 41.7071C167.353 40.861 166.784 39.7741 166.575 38.5942C166.365 37.4143 166.524 36.1987 167.031 35.1124C167.538 34.026 168.368 33.1217 169.408 32.5223C170.448 31.9229 171.647 31.6575 172.844 31.762C174.04 31.8666 175.175 32.336 176.095 33.1067C177.015 33.8773 177.674 34.9118 177.984 36.0695C178.294 37.2272 178.239 38.452 177.827 39.5775C177.415 40.7031 176.666 41.6748 175.681 42.3606L168.774 72.3763Z" fill="#FFB6B6"/>
</g>
</g>
<defs>
<clipPath id="clip0_2248_4537">
<rect width="345.557" height="228" fill="white" transform="translate(0.221436 0.5)"/>
</clipPath>
<clipPath id="clip1_2248_4537">
<rect width="261.596" height="198" fill="white" transform="translate(84.1824 30.5)"/>
</clipPath>
<clipPath id="clip2_2248_4537">
<rect width="177.961" height="227.58" fill="white" transform="translate(0.221436 0.5)"/>
</clipPath>
</defs>
</svg>
