<svg width="117" height="24" viewBox="0 0 117 24" fill="none" xmlns="http://www.w3.org/2000/svg">
<path d="M0 17.192L1.44 15.608C2.472 16.688 3.504 17.288 4.752 17.288C5.832 17.288 6.648 16.832 6.648 15.968C6.648 15.272 6.144 14.984 4.992 14.504L3.792 14C1.704 13.136 0.72 12.224 0.72 10.568C0.72 8.45601 2.472 7.16001 4.872 7.16001C6.576 7.16001 7.92 7.76001 8.952 8.98401L7.584 10.544C6.84 9.77601 5.856 9.34401 4.824 9.34401C3.84 9.34401 3.216 9.72801 3.216 10.472C3.216 11.072 3.624 11.384 4.776 11.864L5.904 12.32C8.136 13.256 9.12 14.216 9.12 15.872C9.12 17 8.712 17.888 7.872 18.536C7.032 19.16 6 19.472 4.752 19.472C2.736 19.472 1.056 18.56 0 17.192Z" fill="white"/>
<path d="M12.0259 19.208V7.42401H14.5459V19.208H12.0259ZM11.5699 3.03201C11.5699 2.09601 12.3379 1.35201 13.2979 1.35201C14.2339 1.35201 15.0019 2.09601 15.0019 3.03201C15.0019 3.96801 14.2339 4.68801 13.2979 4.68801C12.3379 4.68801 11.5699 3.96801 11.5699 3.03201Z" fill="white"/>
<path d="M27.4299 7.42401H29.7579V17.984C29.7579 21.704 27.4299 23.792 23.8539 23.792C21.5259 23.792 19.6059 22.88 18.1899 21.56L19.5819 19.808C20.9019 20.864 22.1019 21.488 23.7099 21.488C25.8459 21.488 27.2379 20.336 27.2379 18.128V17.288C26.3499 18.368 24.8859 18.968 23.2539 18.968C19.9659 18.968 17.5179 16.496 17.5179 13.064C17.5179 9.63201 19.9899 7.16001 23.2539 7.16001C25.0539 7.16001 26.5659 7.88001 27.4299 9.10401V7.42401ZM27.2619 13.04C27.2619 10.64 25.6539 9.41601 23.7099 9.41601C22.6779 9.41601 21.8379 9.75201 21.1419 10.424C20.4459 11.096 20.1099 11.984 20.1099 13.064C20.1099 14.168 20.4459 15.056 21.1419 15.752C21.8379 16.424 22.6779 16.76 23.7099 16.76C24.6939 16.76 25.5099 16.448 26.2059 15.8C26.9019 15.152 27.2619 14.24 27.2619 13.04Z" fill="white"/>
<path d="M51.0889 11.84V19.208H48.5449V12.2C48.5449 10.544 47.6089 9.46401 46.0969 9.46401C44.5609 9.46401 43.5049 10.568 43.5049 12.08V19.208H40.9849V12.2C40.9849 10.568 40.0249 9.46401 38.5129 9.46401C36.9769 9.46401 35.9209 10.568 35.9209 12.2V19.208H33.4009V7.42401H35.7529V8.52801C36.5929 7.66401 37.7449 7.16001 39.1609 7.16001C40.7929 7.16001 42.0409 7.85601 42.7369 9.00801C43.6009 7.88001 45.0649 7.16001 46.7209 7.16001C49.4329 7.16001 51.0889 9.03201 51.0889 11.84Z" fill="white"/>
<path d="M63.9484 12.08V19.208H61.5964V17.888C60.7324 18.92 59.4364 19.472 57.8284 19.472C55.3564 19.472 53.7244 18.104 53.7244 16.064C53.7244 14.024 55.4044 12.704 58.0684 12.704H61.4044V11.936C61.4044 10.304 60.4924 9.41601 58.8844 9.41601C57.5644 9.41601 56.6044 9.99201 55.6204 11.168L54.1564 9.68001C55.3324 7.97601 57.0844 7.16001 59.1244 7.16001C62.0284 7.16001 63.9484 8.91201 63.9484 12.08ZM61.4044 14.744V14.528H58.3804C57.0364 14.528 56.2924 15.008 56.2924 15.968C56.2924 16.952 57.1324 17.528 58.3564 17.528C60.0604 17.528 61.4044 16.352 61.4044 14.744Z" fill="white"/>
<path d="M67.4556 19.208V1.20801H69.9756V19.208H67.4556Z" fill="white"/>
<path d="M84.2276 14.144H75.4436C75.7556 16.064 77.2676 17.24 79.2836 17.24C80.5076 17.24 81.6596 16.784 82.7156 15.848L83.9156 17.576C82.5716 18.848 81.0116 19.472 79.2116 19.472C75.6116 19.472 72.8756 16.808 72.8756 13.328C72.8036 9.94401 75.6356 7.08801 78.9716 7.16001C82.0916 7.16001 84.4196 9.48801 84.4196 12.56C84.4196 13.064 84.3476 13.592 84.2276 14.144ZM75.4916 12.176H81.8996C81.8756 10.376 80.5316 9.29601 78.8756 9.29601C77.2196 9.29601 75.8756 10.424 75.4916 12.176Z" fill="white"/>
<path d="M96.6671 12.08V19.208H94.3151V17.888C93.4511 18.92 92.1551 19.472 90.5471 19.472C88.0751 19.472 86.4431 18.104 86.4431 16.064C86.4431 14.024 88.1231 12.704 90.7871 12.704H94.1231V11.936C94.1231 10.304 93.2111 9.41601 91.6031 9.41601C90.2831 9.41601 89.3231 9.99201 88.3391 11.168L86.8751 9.68001C88.0511 7.97601 89.8031 7.16001 91.8431 7.16001C94.7471 7.16001 96.6671 8.91201 96.6671 12.08ZM94.1231 14.744V14.528H91.0991C89.7551 14.528 89.0111 15.008 89.0111 15.968C89.0111 16.952 89.8511 17.528 91.0751 17.528C92.7791 17.528 94.1231 16.352 94.1231 14.744Z" fill="white"/>
<path d="M112.414 13.304C112.414 16.832 109.966 19.472 106.63 19.472C105.022 19.472 103.63 18.848 102.694 17.768V23.528H100.174V7.42401H102.526V9.08001C103.39 7.85601 104.902 7.16001 106.63 7.16001C109.966 7.16001 112.414 9.82401 112.414 13.304ZM109.822 13.328C109.822 11.072 108.262 9.46401 106.222 9.46401C104.374 9.46401 102.67 10.736 102.67 13.304C102.67 15.896 104.374 17.168 106.222 17.168C108.238 17.168 109.822 15.584 109.822 13.328Z" fill="white"/>
<path d="M116.41 2.70801C116.41 4.08872 115.262 5.20801 113.845 5.20801C112.428 5.20801 111.28 4.08872 111.28 2.70801C111.28 1.3273 112.428 0.208008 113.845 0.208008C115.262 0.208008 116.41 1.3273 116.41 2.70801Z" fill="#29C775"/>
</svg>
