<svg width="160" height="27" viewBox="0 0 160 27" fill="none" xmlns="http://www.w3.org/2000/svg">
<path d="M15.1819 0.573627C12.7388 4.80167 10.3198 8.98765 7.89173 13.1947C8.14268 13.2384 8.39731 13.2576 8.65199 13.2518C9.43329 13.2518 10.2176 13.2518 10.9989 13.2518L14.5538 13.2608H14.9805C15.1689 13.267 15.3555 13.2226 15.521 13.1322C15.6864 13.0418 15.8245 12.9088 15.9211 12.7469C15.9692 12.6718 16.0143 12.5937 16.0593 12.5155C18.263 8.70919 20.4607 4.91086 22.6523 1.12054C22.7605 0.934228 22.8867 0.759937 23.0159 0.567617C23.1792 0.730243 23.3225 0.911837 23.4426 1.10852C24.27 2.54091 25.0984 3.97429 25.9278 5.40869L29.2543 11.1783C29.4564 11.5514 29.6844 11.9098 29.9365 12.2511C30.1245 12.485 30.2462 12.7652 30.289 13.0622C30.3319 13.3593 30.2942 13.6624 30.1799 13.9399C30.0867 14.2014 29.968 14.4531 29.8253 14.6912C27.6737 18.2791 25.6002 21.9032 23.5148 25.5452C23.4577 25.6414 23.4006 25.7406 23.3375 25.8457C23.2491 25.9861 23.1255 26.1008 22.9788 26.1783C22.8322 26.2558 22.6678 26.2935 22.5021 26.2875H20.9395C19.6804 26.2875 18.4213 26.2875 17.1622 26.2875C16.8406 26.2875 16.5191 26.2514 16.2126 26.2304L16.1886 26.1973C16.1855 26.1814 16.1855 26.1651 16.1886 26.1493C18.5926 21.9843 20.9966 17.8204 23.4006 13.6574C23.4006 13.6574 23.4006 13.6574 23.4006 13.6184C23.2025 13.5789 23.0014 13.5568 22.7996 13.5523H21.237H16.429C16.3508 13.5523 16.2697 13.5523 16.1916 13.5523C16.0578 13.5569 15.9268 13.5924 15.809 13.656C15.6912 13.7196 15.5897 13.8095 15.5124 13.9189C15.4463 14.012 15.3862 14.1082 15.3291 14.2194C13.0313 18.186 10.7275 22.1536 8.4176 26.1222C8.38755 26.1763 8.3545 26.2274 8.31243 26.2965C8.14325 26.07 7.99157 25.8309 7.85867 25.5813C6.96919 24.0407 6.0787 22.4992 5.18722 20.9566C3.96318 18.8311 2.73112 16.7125 1.49106 14.601C1.36184 14.3816 1.23263 14.1623 1.09139 13.9489C0.978516 13.7878 0.917969 13.5958 0.917969 13.399C0.917969 13.2022 0.978516 13.0102 1.09139 12.8491C1.89273 11.4868 2.68505 10.1245 3.46835 8.76227C4.87069 6.34224 6.27303 3.92121 7.67536 1.49917C7.76639 1.33724 7.86673 1.18071 7.97586 1.03039C8.10468 0.852186 8.27546 0.7085 8.47307 0.612055C8.67067 0.51561 8.88902 0.469383 9.10875 0.477467C10.1575 0.477467 11.2123 0.504512 12.255 0.510522C12.8891 0.510522 13.5261 0.492492 14.1602 0.510522C14.4697 0.504512 14.8032 0.546582 15.1819 0.573627Z" fill="#262626"/>
<path d="M45.2927 25.0681C41.8716 25.0681 39.4033 24.2875 37.888 22.7262V18.9377C39.6559 20.2694 41.8945 20.9353 44.6038 20.9353C45.9815 20.9353 46.9688 20.7516 47.5657 20.3842C48.1627 19.9939 48.4612 19.3625 48.4612 18.49C48.4612 18.0078 48.3578 17.6405 48.1512 17.3879C47.9446 17.1124 47.5542 16.8713 46.9802 16.6646C46.7736 16.5728 45.8322 16.3432 44.1561 15.9758C42.48 15.5855 41.2516 15.1493 40.471 14.6671C38.6571 13.6109 37.7502 11.7626 37.7502 9.1222C37.7502 6.80321 38.5423 5.05823 40.1266 3.88725C41.7108 2.71628 43.674 2.13079 46.0159 2.13079C48.9778 2.13079 51.1246 2.8196 52.4563 4.19722V8.15786C51.8363 7.76754 50.9409 7.41166 49.7699 7.09021C48.6219 6.76877 47.4509 6.60805 46.257 6.60805C45.109 6.60805 44.2365 6.75729 43.6395 7.05577C43.0425 7.35426 42.7441 7.89382 42.7441 8.67447C42.7441 9.524 43.2262 10.121 44.1906 10.4654C44.6268 10.6491 45.7059 10.9361 47.428 11.3264C49.1729 11.6937 50.4128 12.107 51.1475 12.5662C52.1348 13.1632 52.8236 13.8979 53.2139 14.7704C53.6043 15.62 53.7994 16.6876 53.7994 17.9734C53.7994 20.3153 53.0303 22.0833 51.4919 23.2772C49.9765 24.4711 47.9101 25.0681 45.2927 25.0681ZM62.6425 25.0337C61.0124 25.0337 59.6577 24.6089 58.5786 23.7594C57.5224 22.9098 56.9943 21.5322 56.9943 19.6265V11.2231H54.8935V8.43339C56.2251 8.29563 57.1665 7.85938 57.7176 7.12465C58.2916 6.36696 58.8082 5.08119 59.2674 3.26733H62.4359V7.71014H67.1887V11.2231H62.4359V18.4555C62.4359 19.4428 62.6425 20.1431 63.0558 20.5564C63.4691 20.9697 64.1579 21.1763 65.1223 21.1763C65.8111 21.1763 66.4999 21.0501 67.1887 20.7975V23.2772C66.3621 24.4482 64.8467 25.0337 62.6425 25.0337ZM84.1229 17.2157H74.1007C74.1925 18.6163 74.6288 19.5806 75.4094 20.1087C76.213 20.6138 77.4185 20.8664 79.0257 20.8664C80.8625 20.8664 82.4697 20.5334 83.8473 19.8676V22.7606C83.4111 23.3576 82.619 23.8742 81.471 24.3104C80.3459 24.7467 79.0257 24.9648 77.5103 24.9648C74.6173 24.9648 72.4016 24.2186 70.8633 22.7262C69.3479 21.2108 68.5902 19.0181 68.5902 16.148V16.1136C68.5902 13.3813 69.3824 11.2345 70.9666 9.67324C72.5509 8.08898 74.5714 7.29685 77.0281 7.29685C79.4619 7.29685 81.3332 7.95122 82.6419 9.25996C83.9736 10.5687 84.6395 12.2907 84.6395 14.426C84.6395 15.3444 84.4673 16.2743 84.1229 17.2157ZM77.1659 10.7065C75.2143 10.7065 74.1925 12.0611 74.1007 14.7704H79.7489V14.426C79.7489 11.9463 78.8879 10.7065 77.1659 10.7065ZM100.583 24.5859L98.1032 13.1173L95.7613 24.5859H89.2176L85.4292 7.71014H90.733L93.1438 20.0054L95.5547 7.71014H100.617L103.442 20.0054L105.577 7.71014H110.571L106.954 24.5859H100.583ZM116.156 25.0337C114.733 25.0337 113.573 24.6204 112.678 23.7938C111.783 22.9443 111.335 21.8307 111.335 20.4531V20.4186C111.335 19.8446 111.404 19.328 111.541 18.8688C111.679 18.4096 111.92 18.0193 112.265 17.6979C112.632 17.3535 112.954 17.0779 113.229 16.8713C113.528 16.6646 113.998 16.458 114.641 16.2514C115.284 16.0218 115.766 15.861 116.088 15.7692C116.432 15.6774 117.006 15.5396 117.81 15.3559C119.049 15.0574 119.899 14.7934 120.358 14.5638C120.817 14.3112 121.047 13.9668 121.047 13.5306V13.4272C121.047 12.2792 119.968 11.7052 117.81 11.7052C115.697 11.7052 113.883 12.2218 112.368 13.255V9.94877C113.7 8.18082 115.973 7.29685 119.187 7.29685C121.736 7.29685 123.584 7.9053 124.732 9.1222C125.903 10.3391 126.489 12.1185 126.489 14.4605V19.8332C126.489 21.7618 126.535 23.0361 126.626 23.656C126.649 24.0234 126.707 24.3334 126.799 24.5859H122.011C121.828 24.2645 121.701 24.0005 121.632 23.7938C121.357 23.2198 121.208 22.5195 121.185 21.6929C120.45 23.9201 118.774 25.0337 116.156 25.0337ZM118.671 21.9685C119.359 21.9685 119.922 21.67 120.358 21.073C120.817 20.476 121.047 19.638 121.047 18.5589V16.4236C120.68 16.745 120.037 17.1238 119.118 17.5601C118.315 17.8815 117.729 18.2145 117.362 18.5589C117.017 18.9033 116.845 19.3625 116.845 19.9365V20.1087C116.845 21.3485 117.454 21.9685 118.671 21.9685ZM129.279 24.5859V7.71014H133.653C133.791 8.00862 133.94 8.44487 134.101 9.01887C134.422 10.121 134.583 11.2116 134.583 12.2907V13.0828C135.272 9.34032 136.822 7.46906 139.232 7.46906C139.944 7.46906 140.484 7.76754 140.851 8.36451V12.4974C138.785 12.4055 137.246 12.7729 136.236 13.5994C135.226 14.426 134.721 15.861 134.721 17.9045V24.5859H129.279ZM148.864 24.9648C146.729 24.9648 145.064 24.1612 143.871 22.554C142.7 20.9238 142.114 18.7885 142.114 16.148V16.1136C142.114 13.3584 142.768 11.2116 144.077 9.67324C145.386 8.11194 147.085 7.33129 149.174 7.33129C150.598 7.33129 151.734 7.68718 152.584 8.39895C153.433 9.08776 154.019 9.93729 154.34 10.9475V1.40754H159.816V24.5859H155.442C155.259 24.2645 155.121 23.9316 155.029 23.5872C154.708 22.7376 154.536 21.8651 154.513 20.9697C153.456 23.6331 151.574 24.9648 148.864 24.9648ZM150.931 21.2108C151.964 21.2108 152.791 20.786 153.41 19.9365C154.03 19.087 154.34 17.9504 154.34 16.5269V15.907C154.34 14.2997 154.03 13.0943 153.41 12.2907C152.814 11.4871 151.987 11.0853 150.931 11.0853C149.898 11.0853 149.082 11.4641 148.486 12.2218C147.912 12.9795 147.625 14.0472 147.625 15.4248V16.5613C147.625 18.0308 147.9 19.1788 148.451 20.0054C149.025 20.809 149.852 21.2108 150.931 21.2108Z" fill="#262626"/>
</svg>
