<svg width="153" height="41" viewBox="0 0 153 41" fill="none" xmlns="http://www.w3.org/2000/svg">
<path d="M0.96 27.812L2.88 25.7C4.256 27.14 5.632 27.94 7.296 27.94C8.736 27.94 9.824 27.332 9.824 26.18C9.824 25.252 9.152 24.868 7.616 24.228L6.016 23.556C3.232 22.404 1.92 21.188 1.92 18.98C1.92 16.164 4.256 14.436 7.456 14.436C9.728 14.436 11.52 15.236 12.896 16.868L11.072 18.948C10.08 17.924 8.768 17.348 7.392 17.348C6.08 17.348 5.248 17.86 5.248 18.852C5.248 19.652 5.792 20.068 7.328 20.708L8.832 21.316C11.808 22.564 13.12 23.844 13.12 26.052C13.12 27.556 12.576 28.74 11.456 29.604C10.336 30.436 8.96 30.852 7.296 30.852C4.608 30.852 2.368 29.636 0.96 27.812ZM16.9945 30.5V14.788H20.3545V30.5H16.9945ZM16.3865 8.932C16.3865 7.684 17.4105 6.692 18.6905 6.692C19.9385 6.692 20.9625 7.684 20.9625 8.932C20.9625 10.18 19.9385 11.14 18.6905 11.14C17.4105 11.14 16.3865 10.18 16.3865 8.932ZM37.5333 14.788H40.6373V28.868C40.6373 33.828 37.5333 36.612 32.7653 36.612C29.6613 36.612 27.1013 35.396 25.2133 33.636L27.0693 31.3C28.8293 32.708 30.4293 33.54 32.5733 33.54C35.4213 33.54 37.2773 32.004 37.2773 29.06V27.94C36.0933 29.38 34.1413 30.18 31.9653 30.18C27.5813 30.18 24.3173 26.884 24.3173 22.308C24.3173 17.732 27.6133 14.436 31.9653 14.436C34.3653 14.436 36.3813 15.396 37.5333 17.028V14.788ZM37.3093 22.276C37.3093 19.076 35.1653 17.444 32.5733 17.444C31.1973 17.444 30.0773 17.892 29.1493 18.788C28.2213 19.684 27.7733 20.868 27.7733 22.308C27.7733 23.78 28.2213 24.964 29.1493 25.892C30.0773 26.788 31.1973 27.236 32.5733 27.236C33.8853 27.236 34.9733 26.82 35.9013 25.956C36.8293 25.092 37.3093 23.876 37.3093 22.276ZM69.0785 20.676V30.5H65.6865V21.156C65.6865 18.948 64.4385 17.508 62.4225 17.508C60.3745 17.508 58.9665 18.98 58.9665 20.996V30.5H55.6065V21.156C55.6065 18.98 54.3265 17.508 52.3105 17.508C50.2625 17.508 48.8545 18.98 48.8545 21.156V30.5H45.4945V14.788H48.6305V16.26C49.7505 15.108 51.2865 14.436 53.1745 14.436C55.3505 14.436 57.0145 15.364 57.9425 16.9C59.0945 15.396 61.0465 14.436 63.2545 14.436C66.8705 14.436 69.0785 16.932 69.0785 20.676ZM86.2245 20.996V30.5H83.0885V28.74C81.9365 30.116 80.2085 30.852 78.0645 30.852C74.7685 30.852 72.5925 29.028 72.5925 26.308C72.5925 23.588 74.8325 21.828 78.3845 21.828H82.8325V20.804C82.8325 18.628 81.6165 17.444 79.4725 17.444C77.7125 17.444 76.4325 18.212 75.1205 19.78L73.1685 17.796C74.7365 15.524 77.0725 14.436 79.7925 14.436C83.6645 14.436 86.2245 16.772 86.2245 20.996ZM82.8325 24.548V24.26H78.8005C77.0085 24.26 76.0165 24.9 76.0165 26.18C76.0165 27.492 77.1365 28.26 78.7685 28.26C81.0405 28.26 82.8325 26.692 82.8325 24.548Z" fill="#0A024E"/>
<path d="M90.9008 30.5V6.5H94.2608V30.5H90.9008ZM113.264 23.748H101.552C101.968 26.308 103.984 27.876 106.672 27.876C108.304 27.876 109.84 27.268 111.248 26.02L112.847 28.324C111.056 30.02 108.976 30.852 106.576 30.852C101.776 30.852 98.1275 27.3 98.1275 22.66C98.0315 18.148 101.808 14.34 106.256 14.436C110.416 14.436 113.52 17.54 113.52 21.636C113.52 22.308 113.424 23.012 113.264 23.748ZM101.616 21.124H110.16C110.128 18.724 108.336 17.284 106.128 17.284C103.92 17.284 102.128 18.788 101.616 21.124ZM129.85 20.996V30.5H126.714V28.74C125.562 30.116 123.834 30.852 121.69 30.852C118.394 30.852 116.218 29.028 116.218 26.308C116.218 23.588 118.458 21.828 122.01 21.828H126.458V20.804C126.458 18.628 125.242 17.444 123.098 17.444C121.338 17.444 120.058 18.212 118.746 19.78L116.794 17.796C118.362 15.524 120.698 14.436 123.418 14.436C127.29 14.436 129.85 16.772 129.85 20.996ZM126.458 24.548V24.26H122.426C120.634 24.26 119.641 24.9 119.641 26.18C119.641 27.492 120.762 28.26 122.394 28.26C124.666 28.26 126.458 26.692 126.458 24.548ZM150.846 22.628C150.846 27.332 147.582 30.852 143.134 30.852C140.99 30.852 139.134 30.02 137.886 28.58V36.26H134.526V14.788H137.662V16.996C138.814 15.364 140.83 14.436 143.134 14.436C147.582 14.436 150.846 17.988 150.846 22.628ZM147.39 22.66C147.39 19.652 145.31 17.508 142.59 17.508C140.126 17.508 137.854 19.204 137.854 22.628C137.854 26.084 140.126 27.78 142.59 27.78C145.278 27.78 147.39 25.668 147.39 22.66Z" fill="#554BDB"/>
<circle cx="150.5" cy="6" r="2.5" fill="#554BDB"/>
</svg>
