<svg width="31" height="27" viewBox="0 0 31 27" fill="none" xmlns="http://www.w3.org/2000/svg">
<path d="M15.1819 0.573627C12.7388 4.80167 10.3198 8.98765 7.89173 13.1947C8.14268 13.2384 8.39731 13.2576 8.65199 13.2518C9.43329 13.2518 10.2176 13.2518 10.9989 13.2518L14.5538 13.2608H14.9805C15.1689 13.267 15.3555 13.2226 15.521 13.1322C15.6864 13.0418 15.8245 12.9088 15.9211 12.7469C15.9692 12.6718 16.0143 12.5937 16.0593 12.5155C18.263 8.70919 20.4607 4.91086 22.6523 1.12054C22.7605 0.934228 22.8867 0.759937 23.0159 0.567617C23.1792 0.730243 23.3225 0.911837 23.4426 1.10852C24.27 2.54091 25.0984 3.97429 25.9278 5.40869L29.2543 11.1783C29.4564 11.5514 29.6844 11.9098 29.9365 12.2511C30.1245 12.485 30.2462 12.7652 30.289 13.0622C30.3319 13.3593 30.2942 13.6624 30.1799 13.9399C30.0867 14.2014 29.968 14.4531 29.8253 14.6912C27.6737 18.2791 25.6002 21.9032 23.5148 25.5452C23.4577 25.6414 23.4006 25.7406 23.3375 25.8457C23.2491 25.9861 23.1255 26.1008 22.9788 26.1783C22.8322 26.2558 22.6678 26.2935 22.5021 26.2875H20.9395C19.6804 26.2875 18.4213 26.2875 17.1622 26.2875C16.8406 26.2875 16.5191 26.2514 16.2126 26.2304L16.1886 26.1973C16.1855 26.1814 16.1855 26.1651 16.1886 26.1493C18.5926 21.9843 20.9966 17.8204 23.4006 13.6574C23.4006 13.6574 23.4006 13.6574 23.4006 13.6184C23.2025 13.5789 23.0014 13.5568 22.7996 13.5523H21.237H16.429C16.3508 13.5523 16.2697 13.5523 16.1916 13.5523C16.0578 13.5569 15.9268 13.5924 15.809 13.656C15.6912 13.7196 15.5897 13.8095 15.5124 13.9189C15.4463 14.012 15.3862 14.1082 15.3291 14.2194C13.0313 18.186 10.7275 22.1536 8.4176 26.1222C8.38755 26.1763 8.3545 26.2274 8.31243 26.2965C8.14325 26.07 7.99157 25.8309 7.85867 25.5813C6.96919 24.0407 6.0787 22.4992 5.18722 20.9566C3.96318 18.8311 2.73112 16.7125 1.49106 14.601C1.36184 14.3816 1.23263 14.1623 1.09139 13.9489C0.978516 13.7878 0.917969 13.5958 0.917969 13.399C0.917969 13.2022 0.978516 13.0102 1.09139 12.8491C1.89273 11.4868 2.68505 10.1245 3.46835 8.76228C4.87069 6.34224 6.27303 3.92121 7.67536 1.49917C7.76639 1.33724 7.86673 1.18071 7.97587 1.03039C8.10468 0.852186 8.27546 0.7085 8.47307 0.612055C8.67067 0.51561 8.88902 0.469383 9.10875 0.477467C10.1575 0.477467 11.2123 0.504512 12.255 0.510522C12.8891 0.510522 13.5261 0.492492 14.1602 0.510522C14.4697 0.504512 14.8032 0.546582 15.1819 0.573627Z" fill="#262626"/>
</svg>
